<?xml version="1.0" encoding="UTF-8" standalone="no"?>
<!-- Created with Inkscape (http://www.inkscape.org/) -->

<svg
   width="210mm"
   height="297mm"
   viewBox="0 0 210 297"
   version="1.1"
   id="svg5"
   inkscape:version="1.2.1 (9c6d41e410, 2022-07-14, custom)"
   sodipodi:docname="disagree.svg"
   inkscape:export-filename="disagree.png"
   inkscape:export-xdpi="96"
   inkscape:export-ydpi="96"
   xmlns:inkscape="http://www.inkscape.org/namespaces/inkscape"
   xmlns:sodipodi="http://sodipodi.sourceforge.net/DTD/sodipodi-0.dtd"
   xmlns="http://www.w3.org/2000/svg"
   xmlns:svg="http://www.w3.org/2000/svg">
  <sodipodi:namedview
     id="namedview7"
     pagecolor="#ffffff"
     bordercolor="#666666"
     borderopacity="1.0"
     inkscape:showpageshadow="2"
     inkscape:pageopacity="0.0"
     inkscape:pagecheckerboard="0"
     inkscape:deskcolor="#d1d1d1"
     inkscape:document-units="mm"
     showgrid="false"
     inkscape:zoom="0.73673541"
     inkscape:cx="85.512382"
     inkscape:cy="236.17706"
     inkscape:window-width="1920"
     inkscape:window-height="1007"
     inkscape:window-x="0"
     inkscape:window-y="0"
     inkscape:window-maximized="1"
     inkscape:current-layer="layer1" />
  <defs
     id="defs2" />
  <g
     inkscape:label="Layer 1"
     inkscape:groupmode="layer"
     id="layer1">
    <circle
       style="opacity:1;fill:#ffd42a;fill-opacity:1;stroke:#000000;stroke-width:0.767;stroke-dasharray:none;stroke-dashoffset:0;stroke-opacity:1"
       id="path414"
       cx="74.564072"
       cy="100.82665"
       r="44.84087"
       inkscape:export-filename="disagree.png"
       inkscape:export-xdpi="96"
       inkscape:export-ydpi="96" />
    <path
       id="path414-6"
       style="fill:#ffc400;fill-opacity:1;stroke:none;stroke-width:1.33704;stroke-dasharray:none;stroke-dashoffset:0;stroke-opacity:1"
       d="M 74.952189,56.746576 A 43.85822,43.85822 0 0 0 31.094161,100.60511 43.85822,43.85822 0 0 0 74.952189,144.46312 43.85822,43.85822 0 0 0 118.8107,100.60511 43.85822,43.85822 0 0 0 74.952189,56.746576 Z M 75.79627,66.806849 A 33.483657,33.483657 0 0 1 109.27963,100.29071 33.483657,33.483657 0 0 1 75.79627,133.77408 33.483657,33.483657 0 0 1 42.312391,100.29071 33.483657,33.483657 0 0 1 75.79627,66.806849 Z" />
    <g
       id="g2075"
       inkscape:export-filename="disagree.png"
       inkscape:export-xdpi="96"
       inkscape:export-ydpi="96"
       style="stroke-width:1.1;stroke-dasharray:none">
      <path
         id="path111"
         style="opacity:1;fill:#ffffff;stroke-width:1.1;stroke-dasharray:none;stroke:#000000;stroke-opacity:1;stroke-dashoffset:0"
         d="m 42.350638,87.353037 a 15.17566,15.17566 0 0 0 -2.649968,8.548315 15.17566,15.17566 0 0 0 15.175301,15.175818 15.17566,15.17566 0 0 0 13.667383,-8.60206 z"
         inkscape:export-filename="disagree.png"
         inkscape:export-xdpi="96"
         inkscape:export-ydpi="96" />
      <rect
         style="opacity:1;fill:#000000;stroke-width:1.1;stroke-dasharray:none;fill-opacity:1"
         id="rect165-3"
         width="37.585747"
         height="4.6960635"
         x="76.280144"
         y="50.518818"
         transform="rotate(30)" />
      <circle
         style="opacity:1;fill:#000000;stroke-width:1.1;stroke-dasharray:none"
         id="path360"
         cx="53.997196"
         cy="105.06741"
         r="3.7568738" />
    </g>
    <g
       id="g2080"
       transform="translate(0,-0.36681843)"
       style="stroke-width:1.1;stroke-dasharray:none">
      <path
         id="path111-6"
         style="fill:#ffffff;stroke:#000000;stroke-width:1.1;stroke-dasharray:none;stroke-dashoffset:0;stroke-opacity:1"
         d="m 106.1112,87.719849 a 15.17566,15.17566 0 0 1 2.64997,8.548314 15.17566,15.17566 0 0 1 -15.175304,15.175817 15.17566,15.17566 0 0 1 -13.66738,-8.60206 z" />
      <rect
         style="fill:#000000;fill-opacity:1;stroke-width:1.1;stroke-dasharray:none"
         id="rect165-3-7"
         width="37.585747"
         height="4.6960635"
         x="-52.108173"
         y="125.06741"
         transform="matrix(-0.8660254,0.5,0.5,0.8660254,0,0)" />
      <circle
         style="fill:#000000;stroke-width:1.1;stroke-dasharray:none"
         id="path360-5"
         cx="-94.464638"
         cy="105.43423"
         r="3.7568738"
         transform="scale(-1,1)" />
    </g>
    <circle
       style="fill:#e9afaf;fill-opacity:1;stroke:none;stroke-width:1.608;stroke-dasharray:none;stroke-dashoffset:0;stroke-opacity:1"
       id="path414-6-9"
       cx="213.86243"
       cy="84.463135"
       r="52.746181"
       inkscape:export-filename="disagree.png"
       inkscape:export-xdpi="96"
       inkscape:export-ydpi="96" />
  </g>
</svg>
